<svg xmlns="http://www.w3.org/2000/svg" width="179" height="120.472" viewBox="0 0 179 120.472"><path d="M35.348 63.087c2.561 0 4.642-.704 6.244-2.113 1.601-1.409 2.433-3.282 2.497-5.62h13.016c-.032 3.522-.993 6.748-2.882 9.678-1.89 2.93-4.475 5.204-7.756 6.821-3.282 1.615-6.908 2.424-10.878 2.424-7.429 0-13.288-2.36-17.578-7.084-4.292-4.723-6.436-11.246-6.436-19.571v-.913c0-8.004 2.129-14.391 6.388-19.163 4.258-4.771 10.102-7.156 17.531-7.156 6.5 0 11.71 1.849 15.633 5.547 3.922 3.699 5.915 8.621 5.979 14.769H44.089c-.064-2.703-.896-4.901-2.497-6.59-1.602-1.69-3.715-2.535-6.34-2.535-3.234 0-5.675 1.179-7.324 3.535-1.65 2.357-2.474 6.181-2.474 11.472v1.443c0 5.355.817 9.204 2.449 11.545 1.633 2.341 4.115 3.511 7.445 3.511zm42.33 10.228H63.75V4.48h13.928v68.835zm6.269-26.367c0-8.1 1.817-14.552 5.451-19.355 3.633-4.803 8.604-7.204 14.913-7.204 5.06 0 9.238 1.89 12.536 5.667V4.48h13.928v68.835H118.24l-.673-5.521c-3.457 4.322-7.908 6.482-13.352 6.482-6.116 0-11.022-2.408-14.721-7.228-3.697-4.819-5.547-11.518-5.547-20.1zm13.881 1.033c0 4.875.848 8.611 2.546 11.209 1.696 2.598 4.162 3.896 7.396 3.896 4.29 0 7.315-1.812 9.078-5.436V37.11c-1.729-3.624-4.724-5.436-8.981-5.436-6.695.002-10.039 5.437-10.039 16.307zm70.907-13.616c-1.891-.256-3.555-.384-4.995-.384-5.251 0-8.693 1.777-10.326 5.332v34.003h-13.88V21.35h13.111l.385 6.196c2.785-4.771 6.644-7.156 11.574-7.156 1.537 0 2.978.208 4.322.625l-.191 13.35zM27.895 78.7c3.848 0 6.894 1.233 9.135 3.699 2.242 2.466 3.363 5.876 3.363 10.228v1.036H21.87c.28 2.336 1.153 4.134 2.62 5.395 1.467 1.261 3.479 1.892 6.04 1.892 1.643 0 3.227-.285 4.75-.854 1.522-.57 3.096-1.434 4.722-2.592v5.128c-3.064 2.167-6.782 3.251-11.153 3.251-4.129 0-7.5-1.243-10.116-3.727-2.616-2.485-3.924-5.792-3.924-9.92 0-3.979 1.21-7.229 3.63-9.751 2.417-2.524 5.57-3.785 9.456-3.785zm6.025 10.788c-.188-1.905-.767-3.395-1.739-4.469-.971-1.074-2.307-1.612-4.006-1.612-1.737 0-3.134.515-4.189 1.542-1.056 1.027-1.723 2.541-2.003 4.539H33.92zM58.96 78.7c2.803 0 5.04.919 6.712 2.76 1.672 1.84 2.508 4.264 2.508 7.271v16.646h-6.865V89.432c0-1.699-.406-3.044-1.22-4.036-.812-.989-1.919-1.484-3.32-1.484-1.065 0-2.064.312-2.999.938-.935.626-1.962 1.667-3.083 3.124v17.402h-6.894V79.204h6.894v3.671c1.27-1.494 2.574-2.563 3.909-3.208 1.337-.646 2.79-.967 4.358-.967zm37.045.504v4.876h-4.484c.729.897 1.238 1.724 1.527 2.48.29.757.434 1.574.434 2.452 0 2.093-.785 4.007-2.354 5.745-1.383 1.513-3.755 2.494-7.118 2.942-1.811.224-3.01.481-3.599.771-.588.29-.882.733-.882 1.331 0 .542.36.958 1.079 1.247.718.29 1.873.565 3.46.827 3.941.635 6.842 1.606 8.702 2.914 1.858 1.308 2.788 3.036 2.788 5.185 0 2.763-1.13 4.889-3.391 6.374-2.26 1.486-5.511 2.229-9.751 2.229-4.017 0-7.212-.701-9.584-2.103-2.372-1.401-3.559-3.278-3.559-5.632 0-3.326 2.289-5.624 6.866-6.894-1.98-.859-2.97-1.99-2.97-3.391 0-1.831 1.495-3.092 4.484-3.783v-.112c-2.037-.561-3.657-1.56-4.863-2.999-1.205-1.438-1.807-3.119-1.807-5.043 0-2.821 1.065-5.095 3.195-6.823 2.129-1.728 4.913-2.593 8.351-2.593h13.476zm-20.316 31.329c0 2.335 2.334 3.502 7.005 3.502 2.017 0 3.601-.322 4.75-.967 1.149-.644 1.723-1.49 1.723-2.536 0-1.158-.649-2.032-1.947-2.62-1.3-.588-3.134-.882-5.507-.882-1.775 0-3.222.331-4.343.995-1.121.663-1.681 1.499-1.681 2.508zm1.653-21.857c0 1.364.48 2.499 1.443 3.405.962.907 2.134 1.359 3.517 1.359 1.42 0 2.587-.472 3.503-1.416.915-.942 1.373-2.134 1.373-3.572 0-1.289-.476-2.368-1.428-3.237-.953-.868-2.103-1.302-3.447-1.302-1.383 0-2.555.472-3.517 1.414-.963.944-1.444 2.06-1.444 3.349zm22.866-9.472h6.894v26.174h-6.894zm27.172-.504c2.802 0 5.039.919 6.711 2.76 1.672 1.84 2.508 4.264 2.508 7.271v16.646h-6.866V89.432c0-1.699-.405-3.044-1.218-4.036-.813-.989-1.92-1.484-3.321-1.484-1.064 0-2.064.312-2.998.938-.934.626-1.962 1.667-3.083 3.124v17.402h-6.894V79.204h6.894v3.671c1.27-1.494 2.573-2.563 3.909-3.208 1.336-.646 2.789-.967 4.358-.967zm24.602 0c3.848 0 6.894 1.233 9.135 3.699 2.242 2.466 3.363 5.876 3.363 10.228v1.036h-18.522c.28 2.336 1.153 4.134 2.62 5.395 1.466 1.261 3.479 1.892 6.039 1.892 1.644 0 3.227-.285 4.75-.854s3.097-1.434 4.722-2.592v5.128c-3.064 2.167-6.782 3.251-11.153 3.251-4.129 0-7.5-1.243-10.116-3.727-2.616-2.485-3.923-5.792-3.923-9.92 0-3.979 1.209-7.229 3.629-9.751 2.417-2.524 5.57-3.785 9.456-3.785zm6.024 10.788c-.188-1.905-.766-3.395-1.737-4.469-.971-1.074-2.308-1.612-4.006-1.612-1.738 0-3.135.515-4.19 1.542-1.055 1.027-1.724 2.541-2.004 4.539h11.937z" fill="#FFF"/></svg>